<?xml version="1.0" standalone="yes"?>
<svg xmlns="http://www.w3.org/2000/svg" width="112" height="112">
<path style="fill:#1d1a17; stroke:none;" d="M0 0L0 112L46 112C45.2787 103.791 40.8763 96.2033 32 95.189C25.7781 94.4781 20.7568 98.6351 17 92L14 94L13 89L8 91L8 83L4 84C2.07642 67.6972 6.8389 58.0686 15.6698 45C19.2155 39.7527 23.0801 32.295 30 32C21.2416 43.4632 19.4645 46.8297 19 61L6 60L6 61C20.2483 61.6133 17.8655 68.4647 8 75L8 76L18 72L16 88L20 80C24.7704 82.4995 30.539 83.8543 35 86.7276C43.8037 92.398 60.2489 108.509 70 93C57.2651 95.2616 48.8831 98.5048 40 86L44 88L46 85C50.0871 92.628 60.3739 93.9253 65 86L66 86C71.1621 93.049 83.1117 85.4645 89 83L91 92L92 92L93 72L99 78L100 78L92 62L102 61C104.571 74.9155 103.15 83.3905 100 97L96 95L95 98C82.2173 90.8397 70.4161 99.3388 66 112L112 112L112 0L0 0z"/>
<path style="fill:#8b7a6f; stroke:none;" d="M50 11L51 12L50 11M48 12L49 13L48 12z"/>
<path style="fill:#938f8c; stroke:none;" d="M48 13C56.8732 24.4899 79.908 32.9189 94 35L90.6057 28.5995L63 18.7415L48 13z"/>
<path style="fill:#8b7a6f; stroke:none;" d="M52 12L53 13L52 12M53 13L54 14L53 13M48 14L49 15L48 14M55 14L56 15L55 14M49 15L50 16L49 15M57 15L58 16L57 15M50 16L51 17L50 16M58.6667 16.3333L59.3333 16.6667L58.6667 16.3333M52 17L53 18L52 17M60.6667 17.3333L61.3333 17.6667L60.6667 17.3333M53 18L54 19L53 18M62.6667 18.3333L63.3333 18.6667L62.6667 18.3333M55 19L56 20L55 19M64.6667 19.3333L65.3333 19.6667L64.6667 19.3333M57 20L58 21L57 20M66.6667 20.3333L67.3333 20.6667L66.6667 20.3333M58 21L59 22L58 21M68.6667 21.3333L69.3333 21.6667L68.6667 21.3333M60 22L61 23L60 22M70.6667 22.3333L71.3333 22.6667L70.6667 22.3333M62 23L63 24L62 23M73 23L74 24L73 23M64 24L65 25L64 24M75.6667 24.3333L76.3333 24.6667L75.6667 24.3333M66 25L67 26L66 25M78.6667 25.3333L79.3333 25.6667L78.6667 25.3333M18 26L16 29L18 26z"/>
<path style="fill:#938f8c; stroke:none;" d="M19 26L20 27L19 26z"/>
<path style="fill:#ecba9c; stroke:none;" d="M15 40L16 40L25 28C15.9472 24.6734 15.0046 33.017 15 40z"/>
<path style="fill:#938f8c; stroke:none;" d="M21 26L22 27L21 26z"/>
<path style="fill:#8b7a6f; stroke:none;" d="M22 26L23 27L22 26M34 26L37 32L40 28L34 26M68.6667 26.3333L69.3333 26.6667L68.6667 26.3333M81.6667 26.3333L82.3333 26.6667L81.6667 26.3333z"/>
<path style="fill:#938f8c; stroke:none;" d="M24 27L25 28L24 27z"/>
<path style="fill:#8b7a6f; stroke:none;" d="M71 27L72 28L71 27M84 27L84 28L88 28L84 27M29 29L29 31L34 33L33 28L29 29M73.6667 28.3333L74.3333 28.6667L73.6667 28.3333M76 29L77 30L76 29M92 29L93 30L92 29M15 30L16 31L15 30M23 30L24 31L23 30z"/>
<path style="fill:#938f8c; stroke:none;" d="M40 30L39 35L40 35L42 31L40 30z"/>
<path style="fill:#8b7a6f; stroke:none;" d="M78.6667 30.3333L79.3333 30.6667L78.6667 30.3333z"/>
<path style="fill:#938f8c; stroke:none;" d="M22 31L23 32L22 31z"/>
<path style="fill:#8b7a6f; stroke:none;" d="M4 84L8 83L8 91L13 89L14 94L17 92C19.8203 99.6652 25.9223 94.4054 32 95.3441C40.3554 96.6346 44.8464 104.303 46 112C51.1358 112 61.1282 113.924 65.5054 110.972C68.403 109.018 69.9539 104.642 72.3009 102.043C79.0704 94.5485 86.3088 94.4592 95 98L96 95L100 97C104.117 84.3688 105.951 73.9791 102 61L92 62L100 78L99 78L93 72L92 92L91 92L89 83C82.0311 85.0115 72.7402 91.8027 66 86L65 86C58.8904 93.1265 51.5655 92.0715 46 85L44 88L40 86C46.1265 99.0273 58.8593 96.1774 70 93C57.3845 106.284 46.7608 93.6586 36 86.7276C31.5133 83.8378 25.0354 81.8297 20 80L16 88L18 72L8 76L8 75C19.8612 69.4537 19.8121 61.2851 6 61L6 60L19 61L18.7932 49L30 32C23.0422 31.0163 19.1101 38.9088 15.6698 44C6.89304 56.9884 1.01041 67.6538 4 84z"/>
<path style="fill:#ecba9c; stroke:none;" d="M40 31C40.3264 35.2784 41.4295 37.6674 46 37L40 31z"/>
<path style="fill:#8b7a6f; stroke:none;" d="M43 31L44 32L43 31M81 31L82 32L81 31M93 31L94 32L93 31M44 32L45 33L44 32M83.6667 32.3333L84.3333 32.6667L83.6667 32.3333M45 33L46 34L45 33M86.6667 33.3333L87.3333 33.6667L86.6667 33.3333z"/>
<path style="fill:#938f8c; stroke:none;" d="M45.3333 34.6667L45.6667 35.3333L45.3333 34.6667z"/>
<path style="fill:#8b7a6f; stroke:none;" d="M48 34L55 37L48 34M89.6667 34.3333L90.3333 34.6667L89.6667 34.3333M94 34L92 35L92 36L94 34M14 35L14 38L15 38L14 35M19 35L20 36L19 35M39 35L40 36L39 35M18 36L19 37L18 36z"/>
<path style="fill:#938f8c; stroke:none;" d="M40 36L41 37L40 36M17 37L18 38L17 37M41 37L42 38L41 37M45 37L46 38L45 37z"/>
<path style="fill:#ecba9c; stroke:none;" d="M30 38L31 39L30 38z"/>
<path style="fill:#f4f4f4; stroke:none;" d="M30.9606 39.1759C27.5596 39.6809 25.8117 46.7932 30.0401 46.7932C33.835 46.7932 35.2618 38.5373 30.9606 39.1759z"/>
<path style="fill:#ecba9c; stroke:none;" d="M32 38L33 39L32 38z"/>
<path style="fill:#8b7a6f; stroke:none;" d="M42 38L43 39L42 38z"/>
<path style="fill:#938f8c; stroke:none;" d="M43 38L44 39L43 38z"/>
<path style="fill:#8b7a6f; stroke:none;" d="M44.6667 38.3333L45.3333 38.6667L44.6667 38.3333z"/>
<path style="fill:#938f8c; stroke:none;" d="M27 41L28 42L27 41z"/>
<path style="fill:#8b7a6f; stroke:none;" d="M26.3333 43.6667L26.6667 44.3333L26.3333 43.6667z"/>
<path style="fill:#ecba9c; stroke:none;" d="M33 44L34 45L33 44z"/>
<path style="fill:#8b7a6f; stroke:none;" d="M33 45L34 46L33 45M79.6667 45.3333L80.3333 45.6667L79.6667 45.3333z"/>
<path style="fill:#938f8c; stroke:none;" d="M27 46L28 47L27 46z"/>
<path style="fill:#ecba9c; stroke:none;" d="M32 46L33 47L32 46M79 46L80 47L79 46z"/>
<path style="fill:#f4f4f4; stroke:none;" d="M80 46L84 51L85 46L80 46z"/>
<path style="fill:#938f8c; stroke:none;" d="M28 47L29 48L28 47z"/>
<path style="fill:#ecba9c; stroke:none;" d="M31 47L32 48L31 47z"/>
<path style="fill:#8b7a6f; stroke:none;" d="M79 47L80 48L79 47M85.3333 47.6667L85.6667 48.3333L85.3333 47.6667z"/>
<path style="fill:#ecba9c; stroke:none;" d="M24.6667 48.3333L25.3333 48.6667L24.6667 48.3333z"/>
<path style="fill:#8b7a6f; stroke:none;" d="M26 48L27 49L26 48M94 48C95.3181 53.8215 92.8335 55.4153 90 60L101 60C99.9735 55.0266 99.7581 48.9991 94 48z"/>
<path style="fill:#f4f4f4; stroke:none;" d="M23 49L28 51L23 49z"/>
<path style="fill:#ecba9c; stroke:none;" d="M27 49L28 50L27 49z"/>
<path style="fill:#f4f4f4; stroke:none;" d="M31 49L32 50L31 49z"/>
<path style="fill:#ecba9c; stroke:none;" d="M32 49L31 51L32 49z"/>
<path style="fill:#8b7a6f; stroke:none;" d="M80 49L81 50L80 49z"/>
<path style="fill:#ecba9c; stroke:none;" d="M87 49L88 50L87 49z"/>
<path style="fill:#8b7a6f; stroke:none;" d="M88 49L89 50L88 49M32 50L33 51L32 50M25 66L20 64L20 68L27 68L27 69C22.5382 69.2472 19.8672 70.1374 21 75L26 72L22 77L22 78C32.4485 86.428 39.4176 81.0061 51 81.26C63.274 81.5292 75.6373 87.9117 87 81L83 76L83 75L89 78L91 71L83 71L91 69L90 63L80 68L87 62C74.959 50.0698 56.0871 47.9752 40 50.9915C32.59 52.3809 17.9882 57.1409 25 66z"/>
<path style="fill:#ecba9c; stroke:none;" d="M82 50L83 51L82 50z"/>
<path style="fill:#938f8c; stroke:none;" d="M84 50L85 51L84 50z"/>
<path style="fill:#f4f4f4; stroke:none;" d="M86 50L86 56L88 56L89 50L86 50z"/>
<path style="fill:#8b7a6f; stroke:none;" d="M23 51L24 52L23 51z"/>
<path style="fill:#ecba9c; stroke:none;" d="M27 51L28 52L27 51M85 51L86 52L85 51z"/>
<path style="fill:#8b7a6f; stroke:none;" d="M89 51L90 52L89 51z"/>
<path style="fill:#938f8c; stroke:none;" d="M25 52L26 53L25 52z"/>
<path style="fill:#8b7a6f; stroke:none;" d="M26 52L27 53L26 52z"/>
<path style="fill:#938f8c; stroke:none;" d="M89.3333 52.6667L89.6667 53.3333L89.3333 52.6667M82.3333 53.6667L82.6667 54.3333L82.3333 53.6667z"/>
<path style="fill:#8b7a6f; stroke:none;" d="M83.3333 53.6667L83.6667 54.3333L83.3333 53.6667z"/>
<path style="fill:#1d1a17; stroke:none;" d="M54 54.4252C49.4825 54.9962 43.9651 54.3238 40.3441 57.5725C27.8085 68.8193 49.3327 79.4999 59 78.4221C77.723 76.3346 72.8537 52.0418 54 54.4252z"/>
<path style="fill:#8b7a6f; stroke:none;" d="M89 54L90 55L89 54z"/>
<path style="fill:#938f8c; stroke:none;" d="M85 55L86 56L85 55z"/>
<path style="fill:#8b7a6f; stroke:none;" d="M88 55L89 56L88 55z"/>
<path style="fill:#938f8c; stroke:none;" d="M102 55L104 57L102 55z"/>
<path style="fill:#8b7a6f; stroke:none;" d="M102 56L103 57L102 56z"/>
<path style="fill:#ecba9c; stroke:none;" d="M103 57L104 58L103 57z"/>
<path style="fill:#938f8c; stroke:none;" d="M103 58L104 59L103 58z"/>
<path style="fill:#8b7a6f; stroke:none;" d="M104 59L105 60L104 59M50 83L50 84L53 84L50 83z"/>
<path style="fill:#ecba9c; stroke:none;" d="M49 84C51.8562 89.1796 58.0886 88.9941 62 85L52 87L53 84L49 84z"/>
<path style="fill:#8b7a6f; stroke:none;" d="M55 84L56 85L55 84z"/>
<path style="fill:#938f8c; stroke:none;" d="M59 84L60 85L59 84z"/>
<path style="fill:#8b7a6f; stroke:none;" d="M60 84L61 85L60 84M42.6667 85.3333L43.3333 85.6667L42.6667 85.3333z"/>
<path style="fill:#938f8c; stroke:none;" d="M52.3333 85.6667L52.6667 86.3333L52.3333 85.6667z"/>
<path style="fill:#8b7a6f; stroke:none;" d="M49 86L50 87L49 86M61 86L62 87L61 86M68 86L68 88L70 86L68 86M50 87L51 88L50 87M60 87L61 88L60 87M52 88L53 89L52 88z"/>
<path style="fill:#938f8c; stroke:none;" d="M53 88L53 89L57 89L53 88z"/>
<path style="fill:#8b7a6f; stroke:none;" d="M57 88L58 89L57 88M7 91L8 92L7 91M97 100L98 101L97 100z"/>
<path style="fill:#1d1a17; stroke:none;" d="M53 101L56 104L53 101z"/>
</svg>
